<?xml version="1.0" standalone="no"?>
<!DOCTYPE svg PUBLIC "-//W3C//DTD SVG 20010904//EN"
 "http://www.w3.org/TR/2001/REC-SVG-20010904/DTD/svg10.dtd">
<svg version="1.0" xmlns="http://www.w3.org/2000/svg"
 width="186.000000pt" height="79.000000pt" viewBox="0 0 186.000000 79.000000"
 preserveAspectRatio="xMidYMid meet">

<g transform="translate(0.000000,79.000000) scale(0.100000,-0.100000)"
fill="#000000" stroke="none">
<path d="M76 695 c-3 -9 -6 -144 -6 -300 0 -235 2 -285 15 -295 16 -13 547
-10 578 4 18 9 25 80 8 90 -5 3 -32 2 -60 -4 -101 -19 -198 24 -189 84 3 20 9
21 148 26 l145 5 3 28 c7 56 -18 137 -55 177 -42 48 -87 64 -164 58 -73 -5
-133 -44 -168 -107 -31 -56 -39 -156 -18 -224 l15 -48 -66 3 -67 3 -5 255 -5
255 -51 3 c-40 2 -53 -1 -58 -13z m485 -225 c22 -13 52 -67 44 -80 -3 -6 -46
-10 -96 -10 -83 0 -89 1 -89 21 0 11 13 34 29 50 31 31 75 38 112 19z"/>
<path d="M1123 700 c-20 -8 -21 -13 -16 -107 2 -54 6 -104 9 -111 2 -9 17 -12
41 -10 l38 3 7 60 c4 33 9 79 12 102 8 64 -28 88 -91 63z"/>
<path d="M802 689 l-33 -10 3 -254 c3 -238 4 -255 24 -282 30 -41 80 -63 145
-63 81 0 119 15 119 48 0 45 -11 52 -79 49 -93 -3 -101 10 -101 164 0 136 -7
127 105 131 l60 3 0 40 0 40 -80 5 -80 5 -3 55 c-5 79 -15 88 -80 69z"/>
<path d="M1267 533 c-18 -18 -1 -62 60 -154 62 -94 69 -100 97 -97 48 5 47 43
-4 118 l-41 60 121 0 c118 0 121 0 132 25 8 19 8 28 -2 40 -10 12 -42 15 -185
15 -94 0 -175 -3 -178 -7z"/>
<path d="M1548 359 c-27 -15 -22 -49 17 -106 19 -29 35 -55 35 -58 0 -3 -49
-5 -109 -5 -86 0 -113 -3 -125 -16 -20 -20 -20 -38 0 -58 13 -13 44 -16 178
-16 221 0 226 7 119 165 -69 101 -84 113 -115 94z"/>
</g>
</svg>
